<?xml version="1.0" encoding="utf-8"?>
<!-- Generator: Adobe Illustrator 19.1.1, SVG Export Plug-In . SVG Version: 6.00 Build 0)  -->
<svg version="1.1" id="Layer_1" xmlns="http://www.w3.org/2000/svg" xmlns:xlink="http://www.w3.org/1999/xlink" x="0px" y="0px"
	 viewBox="0 0 100 100" style="enable-background:new 0 0 100 100;" xml:space="preserve">
<style type="text/css">
	.st0{clip-path:url(#SVGID_2_);fill:#F99D1C;}
</style>
<g>
	<defs>
		<rect id="SVGID_1_" x="18.1" y="7" width="63.7" height="86.1"/>
	</defs>
	<clipPath id="SVGID_2_">
		<use xlink:href="#SVGID_1_"  style="overflow:visible;"/>
	</clipPath>
	<path class="st0" d="M31.9,85.7c0,0,11.5-17.2,12.5-18.9c1.3-2.1,1.3-5.4,0.2-7.2C44,58.7,26.9,31.5,26.9,31.5
		c-1.5-2.9-1.2-4.9-0.1-6.4c1.7-2.5,4.7-6.9,4.7-6.9s20.8,32.7,21.7,34.1c2.2,3.7,1.6,7.4-0.2,10.5c-1.5,2.6-15,22.8-15,22.8H31.9z"
		/>
	<path class="st0" d="M28.2,87.5c0,0,13.3-19.5,14.3-21.1c1.2-2,1-4.8,0-6.4c-0.6-0.9-19.1-30-19.1-30s-3.3,5-4.3,6.5
		c-1,1.5-1.6,3.4,0.1,6.5c0,0,13.2,20.9,13.8,21.8c1.1,1.7,1,4.8-0.2,6.8C31.9,73.1,18.2,93,18.2,93h39.4c4,0,6.2-1.6,8.1-4.3
		c1.7-2.4,8.2-11.8,9.2-13.3c1-1.5,3-2.5,3.8-2.5h3.1l-6-9.1h-9.6c-1.8,0-4,1.6-5.2,3.4c-0.9,1.4-7.5,11.2-8.6,12.8
		c-0.7,0.9-1.2,1.1-1.8,1.1c-0.3,0-1.1,0-1.2,0c0.4-0.8,11.4-16.8,13.6-20.3c2.6-4.3,3.2-10.1,0.1-15.6C61.9,43.1,39,7,39,7
		s-3.1,4.4-4.3,6.3c-1,1.5-1.3,3.5,0.1,6.5c0,0,19.2,30.6,20.1,32c2.2,3.5,2,8.1,0,11.3c-1.6,2.6-14.9,22.7-14.9,22.7h10.5
		c3.8,0,4.7-1.4,5.8-2.6c1-1.2,6.8-9.9,7.4-10.8c0.7-0.9,2.3-3.5,4.5-3.5h6.9V69c-1.5,0.3-2.9,1.2-4,2.6c-1,1.4-8,11.7-8.8,12.9
		c-1.1,1.5-2.3,2.9-5.3,2.9H28.2z"/>
</g>
</svg>
